<mxfile host="app.diagrams.net" agent="Mozilla/5.0 (X11; Ubuntu; Linux x86_64; rv:136.0) Gecko/20100101 Firefox/136.0" version="27.1.6">
  <diagram name="Page-1" id="a7904f86-f2b4-8e86-fa97-74104820619b">
    <mxGraphModel dx="925" dy="1722" grid="1" gridSize="10" guides="1" tooltips="1" connect="1" arrows="1" fold="1" page="0" pageScale="1" pageWidth="1100" pageHeight="850" background="none" math="0" shadow="0">
      <root>
        <mxCell id="0" />
        <mxCell id="1" parent="0" />
        <mxCell id="9Y6Pb2sn6LNr0E65mJt2-11" style="edgeStyle=orthogonalEdgeStyle;rounded=0;orthogonalLoop=1;jettySize=auto;html=1;" edge="1" parent="1" source="9Y6Pb2sn6LNr0E65mJt2-3" target="9Y6Pb2sn6LNr0E65mJt2-4">
          <mxGeometry relative="1" as="geometry" />
        </mxCell>
        <mxCell id="9Y6Pb2sn6LNr0E65mJt2-3" value="Login" style="rounded=1;whiteSpace=wrap;html=1;" vertex="1" parent="1">
          <mxGeometry x="230" y="60" width="80" height="40" as="geometry" />
        </mxCell>
        <mxCell id="9Y6Pb2sn6LNr0E65mJt2-12" style="edgeStyle=orthogonalEdgeStyle;rounded=0;orthogonalLoop=1;jettySize=auto;html=1;" edge="1" parent="1" source="9Y6Pb2sn6LNr0E65mJt2-4" target="9Y6Pb2sn6LNr0E65mJt2-6">
          <mxGeometry relative="1" as="geometry" />
        </mxCell>
        <mxCell id="9Y6Pb2sn6LNr0E65mJt2-4" value="Add Project" style="rounded=1;whiteSpace=wrap;html=1;" vertex="1" parent="1">
          <mxGeometry x="340" y="60" width="110" height="40" as="geometry" />
        </mxCell>
        <mxCell id="9Y6Pb2sn6LNr0E65mJt2-9" style="edgeStyle=orthogonalEdgeStyle;rounded=0;orthogonalLoop=1;jettySize=auto;html=1;entryX=0.5;entryY=0;entryDx=0;entryDy=0;" edge="1" parent="1" source="9Y6Pb2sn6LNr0E65mJt2-6" target="9Y6Pb2sn6LNr0E65mJt2-7">
          <mxGeometry relative="1" as="geometry" />
        </mxCell>
        <mxCell id="9Y6Pb2sn6LNr0E65mJt2-10" style="edgeStyle=orthogonalEdgeStyle;rounded=0;orthogonalLoop=1;jettySize=auto;html=1;" edge="1" parent="1" source="9Y6Pb2sn6LNr0E65mJt2-6" target="9Y6Pb2sn6LNr0E65mJt2-8">
          <mxGeometry relative="1" as="geometry" />
        </mxCell>
        <mxCell id="9Y6Pb2sn6LNr0E65mJt2-25" style="edgeStyle=orthogonalEdgeStyle;rounded=0;orthogonalLoop=1;jettySize=auto;html=1;entryX=0.5;entryY=1;entryDx=0;entryDy=0;" edge="1" parent="1" source="9Y6Pb2sn6LNr0E65mJt2-6" target="9Y6Pb2sn6LNr0E65mJt2-13">
          <mxGeometry relative="1" as="geometry" />
        </mxCell>
        <mxCell id="9Y6Pb2sn6LNr0E65mJt2-6" value="Add Documents" style="rounded=1;whiteSpace=wrap;html=1;" vertex="1" parent="1">
          <mxGeometry x="480" y="60" width="110" height="40" as="geometry" />
        </mxCell>
        <mxCell id="9Y6Pb2sn6LNr0E65mJt2-7" value="Instruments" style="ellipse;whiteSpace=wrap;html=1;" vertex="1" parent="1">
          <mxGeometry x="435" y="140" width="90" height="40" as="geometry" />
        </mxCell>
        <mxCell id="9Y6Pb2sn6LNr0E65mJt2-8" value="Evidence" style="ellipse;whiteSpace=wrap;html=1;" vertex="1" parent="1">
          <mxGeometry x="545" y="140" width="90" height="40" as="geometry" />
        </mxCell>
        <mxCell id="9Y6Pb2sn6LNr0E65mJt2-33" style="edgeStyle=orthogonalEdgeStyle;rounded=0;orthogonalLoop=1;jettySize=auto;html=1;" edge="1" parent="1" source="9Y6Pb2sn6LNr0E65mJt2-13" target="9Y6Pb2sn6LNr0E65mJt2-27">
          <mxGeometry relative="1" as="geometry" />
        </mxCell>
        <mxCell id="9Y6Pb2sn6LNr0E65mJt2-13" value="OCR " style="rounded=1;whiteSpace=wrap;html=1;" vertex="1" parent="1">
          <mxGeometry x="610" y="-80" width="110" height="40" as="geometry" />
        </mxCell>
        <mxCell id="9Y6Pb2sn6LNr0E65mJt2-14" value="Database table" style="shape=process;whiteSpace=wrap;html=1;backgroundOutline=1;size=0.08333333333333333;" vertex="1" parent="1">
          <mxGeometry x="40" y="-20" width="120" height="40" as="geometry" />
        </mxCell>
        <mxCell id="9Y6Pb2sn6LNr0E65mJt2-18" value="Step" style="rounded=1;whiteSpace=wrap;html=1;" vertex="1" parent="1">
          <mxGeometry x="40" y="-70" width="80" height="40" as="geometry" />
        </mxCell>
        <mxCell id="9Y6Pb2sn6LNr0E65mJt2-19" value="Entity" style="ellipse;whiteSpace=wrap;html=1;" vertex="1" parent="1">
          <mxGeometry x="40" y="40" width="90" height="40" as="geometry" />
        </mxCell>
        <mxCell id="9Y6Pb2sn6LNr0E65mJt2-20" value="users" style="shape=process;whiteSpace=wrap;html=1;backgroundOutline=1;size=0.08333333333333333;" vertex="1" parent="1">
          <mxGeometry x="235" width="70" height="40" as="geometry" />
        </mxCell>
        <mxCell id="9Y6Pb2sn6LNr0E65mJt2-23" value="projects" style="shape=process;whiteSpace=wrap;html=1;backgroundOutline=1;size=0.08333333333333333;" vertex="1" parent="1">
          <mxGeometry x="360" width="70" height="40" as="geometry" />
        </mxCell>
        <mxCell id="9Y6Pb2sn6LNr0E65mJt2-24" value="files" style="shape=process;whiteSpace=wrap;html=1;backgroundOutline=1;size=0.08333333333333333;" vertex="1" parent="1">
          <mxGeometry x="500" width="70" height="40" as="geometry" />
        </mxCell>
        <mxCell id="9Y6Pb2sn6LNr0E65mJt2-26" value="ocr_data" style="shape=process;whiteSpace=wrap;html=1;backgroundOutline=1;size=0.08333333333333333;" vertex="1" parent="1">
          <mxGeometry x="500" y="-80" width="70" height="40" as="geometry" />
        </mxCell>
        <mxCell id="9Y6Pb2sn6LNr0E65mJt2-27" value="Extraction" style="rounded=1;whiteSpace=wrap;html=1;" vertex="1" parent="1">
          <mxGeometry x="610" y="-150" width="110" height="40" as="geometry" />
        </mxCell>
        <mxCell id="9Y6Pb2sn6LNr0E65mJt2-28" value="extracted_data" style="shape=process;whiteSpace=wrap;html=1;backgroundOutline=1;size=0.08333333333333333;" vertex="1" parent="1">
          <mxGeometry x="480" y="-150" width="110" height="40" as="geometry" />
        </mxCell>
        <mxCell id="9Y6Pb2sn6LNr0E65mJt2-36" style="edgeStyle=orthogonalEdgeStyle;rounded=0;orthogonalLoop=1;jettySize=auto;html=1;entryX=0.5;entryY=1;entryDx=0;entryDy=0;" edge="1" parent="1" source="9Y6Pb2sn6LNr0E65mJt2-29" target="9Y6Pb2sn6LNr0E65mJt2-31">
          <mxGeometry relative="1" as="geometry" />
        </mxCell>
        <mxCell id="9Y6Pb2sn6LNr0E65mJt2-39" style="edgeStyle=orthogonalEdgeStyle;rounded=0;orthogonalLoop=1;jettySize=auto;html=1;entryX=0;entryY=0.5;entryDx=0;entryDy=0;" edge="1" parent="1" source="9Y6Pb2sn6LNr0E65mJt2-29" target="9Y6Pb2sn6LNr0E65mJt2-38">
          <mxGeometry relative="1" as="geometry" />
        </mxCell>
        <mxCell id="9Y6Pb2sn6LNr0E65mJt2-42" style="edgeStyle=orthogonalEdgeStyle;rounded=0;orthogonalLoop=1;jettySize=auto;html=1;entryX=0;entryY=0.5;entryDx=0;entryDy=0;" edge="1" parent="1" source="9Y6Pb2sn6LNr0E65mJt2-29" target="9Y6Pb2sn6LNr0E65mJt2-37">
          <mxGeometry relative="1" as="geometry" />
        </mxCell>
        <mxCell id="9Y6Pb2sn6LNr0E65mJt2-29" value="Runsheet" style="rounded=1;whiteSpace=wrap;html=1;" vertex="1" parent="1">
          <mxGeometry x="610" y="-220" width="110" height="40" as="geometry" />
        </mxCell>
        <mxCell id="9Y6Pb2sn6LNr0E65mJt2-30" value="runsheet" style="shape=process;whiteSpace=wrap;html=1;backgroundOutline=1;size=0.08333333333333333;" vertex="1" parent="1">
          <mxGeometry x="480" y="-220" width="110" height="40" as="geometry" />
        </mxCell>
        <mxCell id="9Y6Pb2sn6LNr0E65mJt2-31" value="Runsheet Edits" style="rounded=1;whiteSpace=wrap;html=1;" vertex="1" parent="1">
          <mxGeometry x="610" y="-290" width="110" height="40" as="geometry" />
        </mxCell>
        <mxCell id="9Y6Pb2sn6LNr0E65mJt2-32" value="runsheet_history" style="shape=process;whiteSpace=wrap;html=1;backgroundOutline=1;size=0.08333333333333333;" vertex="1" parent="1">
          <mxGeometry x="480" y="-290" width="110" height="40" as="geometry" />
        </mxCell>
        <mxCell id="9Y6Pb2sn6LNr0E65mJt2-34" style="edgeStyle=orthogonalEdgeStyle;rounded=0;orthogonalLoop=1;jettySize=auto;html=1;entryX=0.5;entryY=1;entryDx=0;entryDy=0;" edge="1" parent="1" source="9Y6Pb2sn6LNr0E65mJt2-27" target="9Y6Pb2sn6LNr0E65mJt2-29">
          <mxGeometry relative="1" as="geometry" />
        </mxCell>
        <mxCell id="9Y6Pb2sn6LNr0E65mJt2-37" value="Add to Chart" style="rounded=1;whiteSpace=wrap;html=1;" vertex="1" parent="1">
          <mxGeometry x="780" y="-270" width="110" height="40" as="geometry" />
        </mxCell>
        <mxCell id="9Y6Pb2sn6LNr0E65mJt2-38" value="Add Evidence" style="rounded=1;whiteSpace=wrap;html=1;" vertex="1" parent="1">
          <mxGeometry x="780" y="-190" width="110" height="40" as="geometry" />
        </mxCell>
        <mxCell id="9Y6Pb2sn6LNr0E65mJt2-52" style="edgeStyle=orthogonalEdgeStyle;rounded=0;orthogonalLoop=1;jettySize=auto;html=1;entryX=0;entryY=0.5;entryDx=0;entryDy=0;" edge="1" parent="1" source="9Y6Pb2sn6LNr0E65mJt2-40" target="9Y6Pb2sn6LNr0E65mJt2-50">
          <mxGeometry relative="1" as="geometry" />
        </mxCell>
        <mxCell id="9Y6Pb2sn6LNr0E65mJt2-40" value="file_relationships" style="shape=process;whiteSpace=wrap;html=1;backgroundOutline=1;size=0.08333333333333333;" vertex="1" parent="1">
          <mxGeometry x="930" y="-190" width="110" height="40" as="geometry" />
        </mxCell>
        <mxCell id="9Y6Pb2sn6LNr0E65mJt2-44" style="edgeStyle=orthogonalEdgeStyle;rounded=0;orthogonalLoop=1;jettySize=auto;html=1;entryX=0.5;entryY=1;entryDx=0;entryDy=0;" edge="1" parent="1" source="9Y6Pb2sn6LNr0E65mJt2-41" target="9Y6Pb2sn6LNr0E65mJt2-43">
          <mxGeometry relative="1" as="geometry" />
        </mxCell>
        <mxCell id="9Y6Pb2sn6LNr0E65mJt2-51" style="edgeStyle=orthogonalEdgeStyle;rounded=0;orthogonalLoop=1;jettySize=auto;html=1;" edge="1" parent="1" source="9Y6Pb2sn6LNr0E65mJt2-41" target="9Y6Pb2sn6LNr0E65mJt2-50">
          <mxGeometry relative="1" as="geometry" />
        </mxCell>
        <mxCell id="9Y6Pb2sn6LNr0E65mJt2-41" value="runsheet_charts" style="shape=process;whiteSpace=wrap;html=1;backgroundOutline=1;size=0.08333333333333333;" vertex="1" parent="1">
          <mxGeometry x="930" y="-270" width="110" height="40" as="geometry" />
        </mxCell>
        <mxCell id="9Y6Pb2sn6LNr0E65mJt2-57" style="edgeStyle=orthogonalEdgeStyle;rounded=0;orthogonalLoop=1;jettySize=auto;html=1;entryX=0;entryY=0.5;entryDx=0;entryDy=0;" edge="1" parent="1" source="9Y6Pb2sn6LNr0E65mJt2-43" target="9Y6Pb2sn6LNr0E65mJt2-45">
          <mxGeometry relative="1" as="geometry" />
        </mxCell>
        <mxCell id="9Y6Pb2sn6LNr0E65mJt2-43" value="chart: &lt;font style=&quot;font-size: 11px;&quot;&gt;jsonb with nodes and&amp;nbsp;&lt;/font&gt;&lt;div align=&quot;right&quot;&gt;&lt;font style=&quot;font-size: 11px;&quot;&gt;edges for each project_id&lt;/font&gt;&lt;/div&gt;" style="shape=internalStorage;whiteSpace=wrap;html=1;backgroundOutline=1;dx=10;dy=10;align=right;" vertex="1" parent="1">
          <mxGeometry x="902.5" y="-370" width="165" height="70" as="geometry" />
        </mxCell>
        <mxCell id="9Y6Pb2sn6LNr0E65mJt2-45" value="&lt;pre class=&quot;data&quot;&gt;{&lt;br&gt;  &quot;191&quot;: {&lt;br&gt;    &quot;edges&quot;: [&lt;br&gt;      {&lt;br&gt;        &quot;id&quot;: &quot;xy-edge__...&quot;,&lt;br&gt;        &quot;data&quot;: {&lt;br&gt;          &quot;type&quot;: &quot;default&quot;&lt;br&gt;        },&lt;br&gt;        &quot;type&quot;: &quot;custom&quot;,&lt;br&gt;        &quot;style&quot;: {&lt;br&gt;          &quot;stroke&quot;: &quot;#000&quot;&lt;br&gt;        },&lt;br&gt;        &quot;source&quot;: &quot;uPbQsvK-...&quot;,&lt;br&gt;        &quot;target&quot;: &quot;oZJ4WHedxsH...&quot;,&lt;br&gt;        &quot;animated&quot;: false&lt;br&gt;      },&lt;br&gt;&lt;span style=&quot;white-space: pre;&quot;&gt;&#x9;&lt;/span&gt;...&lt;br&gt;&lt;span style=&quot;white-space: pre;&quot;&gt;&#x9;&lt;/span&gt;]&lt;br&gt;     &quot;nodes&quot;: [&lt;br&gt;&lt;span style=&quot;white-space: pre;&quot;&gt;&#x9;&lt;/span&gt;{&lt;br/&gt;        &quot;id&quot;: &quot;oZJ4WHedxsHNUPcsFN3N3&quot;,&lt;br/&gt;        &quot;data&quot;: {&lt;br/&gt;          &quot;id&quot;: 5221,&lt;br/&gt;          &quot;s3_url&quot;: &quot;https://titlemine...&lt;br/&gt;          &quot;file_id&quot;: 2903,&lt;br/&gt;          &quot;grantee&quot;: &quot;John Hurt&quot;,&lt;br/&gt;          &quot;grantor&quot;: &quot;Hinge If Austice...&quot;,&lt;br/&gt;&lt;span style=&quot;white-space: pre;&quot;&gt;&#x9;&lt;/span&gt;...&lt;br&gt;&lt;span style=&quot;white-space: pre;&quot;&gt;&#x9;&lt;/span&gt;}&lt;br&gt;&lt;span style=&quot;white-space: pre;&quot;&gt;&#x9;&lt;/span&gt;...&lt;br&gt;      ]&lt;br&gt;   }&lt;br&gt;}&lt;/pre&gt;" style="text;whiteSpace=wrap;html=1;glass=0;shadow=0;fillColor=default;strokeColor=default;rounded=1;arcSize=4;" vertex="1" parent="1">
          <mxGeometry x="1135" y="-900" width="340" height="520" as="geometry" />
        </mxCell>
        <mxCell id="9Y6Pb2sn6LNr0E65mJt2-50" value="Combined" style="shape=step;perimeter=stepPerimeter;whiteSpace=wrap;html=1;fixedSize=1;size=10;" vertex="1" parent="1">
          <mxGeometry x="1090" y="-230" width="100" height="50" as="geometry" />
        </mxCell>
        <mxCell id="9Y6Pb2sn6LNr0E65mJt2-53" value="Flowchart" style="shape=display;whiteSpace=wrap;html=1;size=0.16666666666666666;" vertex="1" parent="1">
          <mxGeometry x="1250" y="-225" width="110" height="40" as="geometry" />
        </mxCell>
        <mxCell id="9Y6Pb2sn6LNr0E65mJt2-54" style="edgeStyle=orthogonalEdgeStyle;rounded=0;orthogonalLoop=1;jettySize=auto;html=1;entryX=0;entryY=0.5;entryDx=0;entryDy=0;entryPerimeter=0;" edge="1" parent="1" source="9Y6Pb2sn6LNr0E65mJt2-50" target="9Y6Pb2sn6LNr0E65mJt2-53">
          <mxGeometry relative="1" as="geometry" />
        </mxCell>
        <mxCell id="9Y6Pb2sn6LNr0E65mJt2-55" style="edgeStyle=orthogonalEdgeStyle;rounded=0;orthogonalLoop=1;jettySize=auto;html=1;entryX=0.5;entryY=1;entryDx=0;entryDy=0;" edge="1" parent="1" source="9Y6Pb2sn6LNr0E65mJt2-53" target="9Y6Pb2sn6LNr0E65mJt2-45">
          <mxGeometry relative="1" as="geometry" />
        </mxCell>
      </root>
    </mxGraphModel>
  </diagram>
</mxfile>
